# xmcd CD database file
#
# Track frame offsets:
#	150
#	15032
#	35686
#	52892
#	75426
#	92123
#	113074
#	138466
#	159211
#	182536
#
# Disc length: 2841 seconds
#
# Revision: 0
# Processed by: cddbd v1.5.2PL0 Copyright (c) Steve Scherf et al.
# Submitted via: CDex 1.70beta2
#
DISCID=660b170a
DTITLE=Larry Carton - five wire
DYEAR=2006
DGENRE=Jazz
TTITLE0=Inkbot 11
TTITLE1=Double Cross
TTITLE2=Naket Truth
TTITLE3=Surrender
TTITLE4=Big Trouble
TTITLE5=Goodbye
TTITLE6=Dity Donna´s House Party
TTITLE7=The Prince
TTITLE8=Sunrise
TTITLE9=Mean Street
EXTD=YEAR: 2006
EXTT0=
EXTT1=
EXTT2=
EXTT3=
EXTT4=
EXTT5=
EXTT6=
EXTT7=
EXTT8=
EXTT9=
PLAYORDER=
